# xmcd
#
# Track frame offsets: 
#        150
#        27163
#        43986
#        67897
#        83980
#        109357
#        124995
#        134624
#        149643
#        162744
#        183705
#        200800
#
# Disc length: 2893 seconds
#
# Revision: 0
# Processed by: cddbd v1.5.2PL0 Copyright (c) Steve Scherf et al.
# Submitted via: ExactAudioCopy v1.3
#
DISCID=c70b4b0c
DTITLE=Barrelhouse - Almost There
DYEAR=2016
DGENRE=Blues Rock
TTITLE0=Hard Feelings
TTITLE1=Almost There
TTITLE2=I Wish I Could Pray
TTITLE3=I Wanna Go Home
TTITLE4=Don't Hold Your Breath
TTITLE5=Goodbye
TTITLE6=Hoky Poky (Instrumental)
TTITLE7=Walk That Road
TTITLE8=Down In The Alley
TTITLE9=Born To Die
TTITLE10=Lonely Together
TTITLE11=Withered On The Vine
EXTD=
EXTT0=
EXTT1=
EXTT2=
EXTT3=
EXTT4=
EXTT5=
EXTT6=
EXTT7=
EXTT8=
EXTT9=
EXTT10=
EXTT11=
PLAYORDER=
